<svg xmlns="http://www.w3.org/2000/svg" xmlns:xlink="http://www.w3.org/1999/xlink" viewBox="0 0 100 100"><defs><path id="prefix__a" d="M0 0h100v100H0z"/></defs><g fill="none" fill-rule="evenodd"><mask id="prefix__b" fill="#fff"><use xlink:href="#prefix__a"/></mask><use fill="#1C1C1C" xlink:href="#prefix__a"/><path fill="#FFF" d="M50 54.6c-3.7 0-7 .8-10.4 2.2-3.2 1.5-6 3.4-8.5 5.8C28.8 65 27 68 25.5 71c-1.3 3.3-2 6.7-2 10.4v21.2h53.2V81.4c0-3.7-.7-7-2-10.3-1.4-3-3.3-6-5.7-8.4-2.5-2.4-5.4-4.3-8.6-5.8-3.3-1.4-6.7-2.2-10.4-2.2zm16-21.2c0 4.4-1.6 8.2-4.7 11.3-3 3-7 4.7-11.3 4.7-4.4 0-8.2-1.6-11.3-4.7-3-3-4.7-7-4.7-11.3 0-4.4 1.6-8.2 4.7-11.3 3-3 7-4.6 11.3-4.6 4.4 0 8.2 1.5 11.3 4.7 3 3.2 4.7 7 4.7 11.4z" mask="url(#prefix__b)"/></g></svg>