<svg width="24" height="24" viewBox="0 0 24 24" fill="none" xmlns="http://www.w3.org/2000/svg"><path fill-rule="evenodd" clip-rule="evenodd" d="M5.5 1.5C3.29086 1.5 1.5 3.29086 1.5 5.5V18.5C1.5 20.7091 3.29086 22.5 5.5 22.5H18.5C20.7091 22.5 22.5 20.7091 22.5 18.5V5.5C22.5 3.29086 20.7091 1.5 18.5 1.5H5.5ZM3.5 5.5C3.5 4.39543 4.39543 3.5 5.5 3.5H18.1651L3.5 18.1651V5.5ZM4.35415 20.1394C4.67867 20.3667 5.07376 20.5 5.5 20.5H18.5C19.6046 20.5 20.5 19.6046 20.5 18.5V5.5C20.5 5.07376 20.3667 4.67867 20.1394 4.35415L4.35415 20.1394Z" fill="#14998E"></path><path d="M15.104 16.3778V14.6618H10.844V12.8618H14.324V11.2898H10.844V9.59782H14.96V7.88182H8.912V16.3778H15.104Z" fill="#21FEEC"></path></svg>