<svg xmlns="http://www.w3.org/2000/svg" viewBox="0 0 24 24"><path d="M20.9,12.2 C20.9,7.39521356 17.0047864,3.5 12.2,3.5 C7.39521356,3.5 3.5,7.39521356 3.5,12.2 C3.5,17.0047864 7.39521356,20.9 12.2,20.9 C17.0047864,20.9 20.9,17.0047864 20.9,12.2 Z M22.4,12.2 C22.4,17.8332136 17.8332136,22.4 12.2,22.4 C6.56678644,22.4 2,17.8332136 2,12.2 C2,6.56678644 6.56678644,2 12.2,2 C17.8332136,2 22.4,6.56678644 22.4,12.2 Z"></path><path d="M7.82869925,17.5252594 L6.87509492,16.5716551 L9.83036628,9.83134582 L16.5696041,6.87542157 L17.5258411,7.827501 L14.5689784,14.5688784 L7.82869925,17.5252594 Z M13.4304216,13.4303216 L15.3530179,9.04697723 L10.9690337,10.9698542 L9.04734145,15.352802 L13.4304216,13.4303216 Z"></path></svg>