<svg xmlns="http://www.w3.org/2000/svg" width="16" height="16" viewBox="0 0 16 16" fill="none"><path d="M2.30001 8.46666C1.00001 7.06666 1.00001 4.79999 2.30001 3.39999C2.96668 2.66666 3.80001 2.33333 4.66668 2.33333C5.33335 2.33333 6.03334 2.56666 6.60001 2.99999C6.83334 3.19999 7.03335 3.43333 7.23335 3.66666L8.03335 4.73333L8.83334 3.66666C9.03334 3.39999 9.23334 3.16666 9.46668 2.99999C10 2.53333 10.6667 2.33333 11.3667 2.33333C12.2 2.33333 13.0667 2.66666 13.7 3.39999C15 4.79999 15 7.06666 13.7 8.46666L8.46668 13.8C8.23334 14.0667 7.80001 14.0667 7.56668 13.8L2.30001 8.46666Z" stroke="#72727F" stroke-width="2" stroke-miterlimit="10" stroke-linecap="round" stroke-linejoin="round"></path></svg>