<svg xmlns="http://www.w3.org/2000/svg" viewBox="0 0 160 22" fill="#fff"><path d="M58.2177 21.1555H54.1108V6.58787H48.7992V3.06799H63.5293V6.58787H58.2177V21.1555Z"></path><path d="M75.819 21.1553H79.9501V3.06799H75.819V21.1553Z"></path><path d="M152.855 17.5861H160V21.1555H148.724V3.06799H152.855V17.5861Z"></path><path d="M97.7115 17.6108H100.273C103.72 17.6108 106.018 15.4605 106.018 12.0382C106.018 8.78718 103.696 6.58813 100.371 6.58813H97.7115V17.6108ZM93.7028 3.06799H100.395C105.333 3.06799 110.247 5.68264 110.247 12.0626C110.247 18.0761 105.431 21.1551 100.64 21.1551L93.7028 21.1553V3.06799Z"></path><path d="M125.334 14.375L128.058 7.30083L130.757 14.375H125.334ZM133.175 21.1555H137.715L130.264 3.06799H125.999L118.475 21.1555H122.894L124.227 17.5865H131.853L133.175 21.1555Z"></path><path d="M21.1775 5.70464L15.8834 10.9992L10.589 5.70464L15.8834 0.411743L21.1775 5.70464Z"></path><path d="M21.1775 16.2936L15.8834 21.5882L10.589 16.2936L15.8834 10.9993L21.1775 16.2936Z"></path><path d="M10.5886 5.70506L5.29417 10.9997L0 5.70506L5.29417 0.411743L10.5886 5.70506Z"></path><path d="M31.7655 5.70506L26.4715 10.9997L21.1769 5.70506L26.4715 0.411743L31.7655 5.70506Z"></path></svg>