<svg xmlns="http://www.w3.org/2000/svg" viewBox="0 0 24 24" fill="currentColor"><path d="M2.25,12A9.73,9.73,0,0,1,6.59,3.89L5.76,2.64a11.25,11.25,0,0,0,0,18.72l.83-1.25A9.73,9.73,0,0,1,2.25,12Z"></path><path d="M18.24,2.64l-.83,1.25a9.75,9.75,0,0,1,0,16.22l.83,1.25a11.25,11.25,0,0,0,0-18.72Z"></path><path d="M9.37,8,8.53,6.8a6.25,6.25,0,0,0,0,10.4L9.37,16a4.75,4.75,0,0,1,0-7.9Z"></path><path d="M15.47,6.8,14.63,8a4.75,4.75,0,0,1,0,7.9l.83,1.25a6.25,6.25,0,0,0,0-10.4Z"></path><circle cx="12" cy="12" r="1.5"></circle></svg>