<svg xmlns="http://www.w3.org/2000/svg" viewBox="0 0 24 24" fill="#fff"><circle cx="19" cy="5" r="3"></circle><path d="M14.0486 4.30036C14.0166 4.52898 14 4.76256 14 5C14 5.487 14.0696 5.95774 14.1995 6.40281C13.5477 6.13012 12.8087 5.9745 12.0109 5.9745H11.9782C9.09983 5.9745 6.9745 8.00459 6.9745 10.2608V16H17.0146V10.2608C17.0146 10.0241 16.9911 9.78977 16.9458 9.55989C17.5604 9.83719 18.2411 9.99389 18.9577 9.99983C18.9616 10.0863 18.9636 10.1733 18.9636 10.2608V16H20C20.5523 16 21 16.4477 21 17C21 17.5523 20.5523 18 20 18H15.9954C15.8967 20.1628 14.2065 22 12 22C9.79519 22 8.10282 20.1743 8.00452 18H4C3.44772 18 3 17.5523 3 17C3 16.4477 3.44772 16 4 16H5.0255V10.2608C5.0255 7.01654 7.71577 4.50874 11 4.08785V3C11 2.44772 11.4477 2 12 2C12.5523 2 13 2.44772 13 3V4.08912C13.3577 4.13541 13.7081 4.20641 14.0486 4.30036ZM10.0079 18H13.992C13.8982 19.1679 12.9902 20 12 20C11.0075 20 10.101 19.1749 10.0079 18Z" clip-rule="evenodd"></path></svg>