<svg xmlns="http://www.w3.org/2000/svg" width="20" height="20" viewBox="0 0 20 20" fill="none"><path fill-rule="evenodd" clip-rule="evenodd" d="M4 9.5C4 6.46243 6.46243 4 9.5 4C12.5376 4 15 6.46243 15 9.5C15 12.5376 12.5376 15 9.5 15C6.46243 15 4 12.5376 4 9.5ZM9.5 2C5.35786 2 2 5.35786 2 9.5C2 13.6421 5.35786 17 9.5 17C11.2104 17 12.7872 16.4274 14.0489 15.4635L16.7925 18.2071C17.183 18.5976 17.8162 18.5976 18.2067 18.2071C18.5972 17.8166 18.5972 17.1834 18.2067 16.7929L15.4632 14.0493C16.4273 12.7875 17 11.2106 17 9.5C17 5.35786 13.6421 2 9.5 2Z" fill="#aaa"></path></svg>