<svg xmlns="http://www.w3.org/2000/svg" viewBox="0 0 24 24"><path d="M14.25,12A2.25,2.25,0,1,0,12,14.25,2.25,2.25,0,0,0,14.25,12Zm-3,0a.75.75,0,1,1,.75.75A.75.75,0,0,1,11.25,12Z"></path><path d="M12,.75A11.25,11.25,0,0,0,1.59,16.26l1.25-.92a9.75,9.75,0,1,1,18.32,0l1.25.92A11.25,11.25,0,0,0,12,.75Z"></path><path d="M12,5.25A6.76,6.76,0,0,0,5.25,12a6.23,6.23,0,0,0,.16,1.44l1.36-1c0-.14,0-.28,0-.43a5.25,5.25,0,0,1,10.5,0c0,.15,0,.29,0,.43l1.36,1A6.23,6.23,0,0,0,18.75,12,6.76,6.76,0,0,0,12,5.25Z"></path><path d="M9.36,23.25h5.27l1.25-7.5H8.11Zm4.75-6-.75,4.5H10.64l-.75-4.5Z"></path></svg>