<svg xmlns="http://www.w3.org/2000/svg" viewBox="0 0 24 24"><path fill-rule="evenodd" d="M11.9991 3.01377L9.83492 8.08367C9.54498 8.74085 8.93406 9.20348 8.21036 9.28389L8.20765 9.28419L2.58036 9.89389C2.58013 9.89391 2.58058 9.89386 2.58036 9.89389C2.57925 9.89402 2.57757 9.89423 2.57666 9.89436C2.57568 9.89646 2.57466 9.89906 2.57381 9.90209C2.57305 9.90479 2.57257 9.90727 2.5723 9.90943C2.57231 9.90944 2.57229 9.90942 2.5723 9.90943L2.57375 9.91055L7.02558 13.372C7.65963 13.8673 7.94261 14.7011 7.7241 15.4853L6.23565 20.9896C6.23694 20.9908 6.23844 20.992 6.24015 20.9932C6.24239 20.9948 6.24453 20.9961 6.24645 20.9971C6.24686 20.9969 6.24729 20.9966 6.24773 20.9963L6.25186 20.9936L10.9267 17.9304C11.5973 17.4965 12.4526 17.4965 13.1232 17.9304L13.133 17.9368L17.7672 21.013C17.7677 21.0134 17.7682 21.0137 17.7687 21.014C17.7732 21.0169 17.7766 21.0187 17.7788 21.0197C17.7803 21.019 17.7821 21.0179 17.7841 21.0165C17.7846 21.0162 17.7851 21.0158 17.7855 21.0155C17.7851 21.0136 17.7846 21.0113 17.784 21.0087C17.7839 21.0084 17.7838 21.008 17.7837 21.0077L16.2958 15.5055C16.0772 14.7212 16.3602 13.8874 16.9943 13.392L16.9961 13.3906L21.4406 9.93484C21.4411 9.93447 21.4415 9.93412 21.442 9.93378C21.4447 9.93159 21.4466 9.92982 21.4479 9.92856C21.4478 9.92608 21.4473 9.92282 21.4463 9.9192C21.4458 9.91746 21.4453 9.91592 21.4447 9.91459C21.4433 9.91436 21.4417 9.91413 21.4398 9.91391C21.4397 9.91391 21.4398 9.91392 21.4398 9.91391L15.8024 9.29421C15.8021 9.29417 15.8017 9.29413 15.8014 9.29409C15.0623 9.2138 14.4478 8.73561 14.1699 8.08187C14.1697 8.08143 14.1695 8.08099 14.1693 8.08055L12.0102 3.02261C12.0087 3.01901 12.0074 3.0164 12.0064 3.01468C12.0045 3.01423 12.002 3.01387 11.9991 3.01377ZM13.8496 2.2374C13.1617 0.625819 10.8511 0.588483 10.1592 2.22984L8.00392 7.27874C7.99872 7.28958 7.99365 7.2938 7.9921 7.29495C7.99107 7.29572 7.99053 7.29592 7.9905 7.29593L7.9895 7.29612L2.36221 7.90582L2.3595 7.90612C0.56697 8.10529 -0.0726964 10.3895 1.34689 11.4901C1.34667 11.4899 1.3471 11.4902 1.34689 11.4901L5.79429 14.948C5.79424 14.948 5.79434 14.9481 5.79429 14.948C5.79512 14.9487 5.79609 14.9498 5.79668 14.9513L4.3046 20.469C3.82395 22.2514 5.81461 23.6789 7.34949 22.6655C7.35037 22.6649 7.35125 22.6643 7.35213 22.6637L12.0132 19.6096C12.0135 19.6094 12.0138 19.6092 12.0141 19.609C12.0156 19.6081 12.0169 19.6074 12.0181 19.6068C12.0195 19.6062 12.0206 19.6058 12.0213 19.6056C12.0228 19.6051 12.024 19.605 12.0249 19.605C12.0259 19.605 12.027 19.6051 12.0285 19.6056C12.0297 19.6059 12.0318 19.6067 12.0349 19.6085L16.6669 22.6832L16.6727 22.687C18.2102 23.6923 20.1957 22.2905 19.7162 20.4923L18.2253 14.979L18.2232 14.9713C18.2238 14.9698 18.2246 14.9688 18.2254 14.9681C18.2254 14.9682 18.2255 14.9681 18.2254 14.9681L22.6737 11.5094L22.6792 11.5052C24.0819 10.3989 23.4611 8.1262 21.6604 7.92612L16.0192 7.30599L16.0174 7.3058C16.0173 7.30574 16.0158 7.30531 16.0148 7.3046C16.0124 7.30282 16.011 7.3006 16.0105 7.29945L13.8496 2.2374C13.8496 2.23741 13.8496 2.23739 13.8496 2.2374Z" clip-rule="evenodd"></path></svg>