<svg xmlns="http://www.w3.org/2000/svg" style="filter:blur(100px);-webkit-filter:blur(100px)" viewBox="0 0 80 80">
   <rect x="0" y="0" width="10" height="10" fill="rgb(85,64,19)" />
   <rect x="0" y="10" width="10" height="10" fill="rgb(89,66,22)" />
   <rect x="0" y="20" width="10" height="10" fill="rgb(93,70,26)" />
   <rect x="0" y="30" width="10" height="10" fill="rgb(91,68,24)" />
   <rect x="0" y="40" width="10" height="10" fill="rgb(113,90,46)" />
   <rect x="0" y="50" width="10" height="10" fill="rgb(112,89,45)" />
   <rect x="0" y="60" width="10" height="10" fill="rgb(105,82,38)" />
   <rect x="0" y="70" width="10" height="10" fill="rgb(126,105,60)" />
   <rect x="0" y="80" width="10" height="10" fill="rgb(0,0,0)" />
   <rect x="10" y="0" width="10" height="10" fill="rgb(132,111,68)" />
   <rect x="10" y="10" width="10" height="10" fill="rgb(121,99,50)" />
   <rect x="10" y="20" width="10" height="10" fill="rgb(128,105,61)" />
   <rect x="10" y="30" width="10" height="10" fill="rgb(162,141,94)" />
   <rect x="10" y="40" width="10" height="10" fill="rgb(163,142,97)" />
   <rect x="10" y="50" width="10" height="10" fill="rgb(92,69,25)" />
   <rect x="10" y="60" width="10" height="10" fill="rgb(120,92,42)" />
   <rect x="10" y="70" width="10" height="10" fill="rgb(103,82,37)" />
   <rect x="10" y="80" width="10" height="10" fill="rgb(0,0,0)" />
   <rect x="20" y="0" width="10" height="10" fill="rgb(90,67,23)" />
   <rect x="20" y="10" width="10" height="10" fill="rgb(100,83,29)" />
   <rect x="20" y="20" width="10" height="10" fill="rgb(135,112,68)" />
   <rect x="20" y="30" width="10" height="10" fill="rgb(138,115,65)" />
   <rect x="20" y="40" width="10" height="10" fill="rgb(162,138,90)" />
   <rect x="20" y="50" width="10" height="10" fill="rgb(103,79,33)" />
   <rect x="20" y="60" width="10" height="10" fill="rgb(114,88,39)" />
   <rect x="20" y="70" width="10" height="10" fill="rgb(119,96,52)" />
   <rect x="20" y="80" width="10" height="10" fill="rgb(0,0,0)" />
   <rect x="30" y="0" width="10" height="10" fill="rgb(107,86,41)" />
   <rect x="30" y="10" width="10" height="10" fill="rgb(109,83,34)" />
   <rect x="30" y="20" width="10" height="10" fill="rgb(98,67,21)" />
   <rect x="30" y="30" width="10" height="10" fill="rgb(177,157,107)" />
   <rect x="30" y="40" width="10" height="10" fill="rgb(101,79,32)" />
   <rect x="30" y="50" width="10" height="10" fill="rgb(112,89,55)" />
   <rect x="30" y="60" width="10" height="10" fill="rgb(133,112,67)" />
   <rect x="30" y="70" width="10" height="10" fill="rgb(106,82,36)" />
   <rect x="30" y="80" width="10" height="10" fill="rgb(0,0,0)" />
   <rect x="40" y="0" width="10" height="10" fill="rgb(87,66,21)" />
   <rect x="40" y="10" width="10" height="10" fill="rgb(117,64,22)" />
   <rect x="40" y="20" width="10" height="10" fill="rgb(131,66,24)" />
   <rect x="40" y="30" width="10" height="10" fill="rgb(158,143,122)" />
   <rect x="40" y="40" width="10" height="10" fill="rgb(241,238,231)" />
   <rect x="40" y="50" width="10" height="10" fill="rgb(243,231,215)" />
   <rect x="40" y="60" width="10" height="10" fill="rgb(103,79,33)" />
   <rect x="40" y="70" width="10" height="10" fill="rgb(204,180,144)" />
   <rect x="40" y="80" width="10" height="10" fill="rgb(0,0,0)" />
   <rect x="50" y="0" width="10" height="10" fill="rgb(130,111,68)" />
   <rect x="50" y="10" width="10" height="10" fill="rgb(95,60,18)" />
   <rect x="50" y="20" width="10" height="10" fill="rgb(88,61,16)" />
   <rect x="50" y="30" width="10" height="10" fill="rgb(235,228,220)" />
   <rect x="50" y="40" width="10" height="10" fill="rgb(149,116,62)" />
   <rect x="50" y="50" width="10" height="10" fill="rgb(249,243,227)" />
   <rect x="50" y="60" width="10" height="10" fill="rgb(141,117,71)" />
   <rect x="50" y="70" width="10" height="10" fill="rgb(131,107,59)" />
   <rect x="50" y="80" width="10" height="10" fill="rgb(0,0,0)" />
   <rect x="60" y="0" width="10" height="10" fill="rgb(137,120,77)" />
   <rect x="60" y="10" width="10" height="10" fill="rgb(137,114,70)" />
   <rect x="60" y="20" width="10" height="10" fill="rgb(130,104,55)" />
   <rect x="60" y="30" width="10" height="10" fill="rgb(141,117,69)" />
   <rect x="60" y="40" width="10" height="10" fill="rgb(147,129,83)" />
   <rect x="60" y="50" width="10" height="10" fill="rgb(157,136,91)" />
   <rect x="60" y="60" width="10" height="10" fill="rgb(182,163,120)" />
   <rect x="60" y="70" width="10" height="10" fill="rgb(166,147,104)" />
   <rect x="60" y="80" width="10" height="10" fill="rgb(0,0,0)" />
   <rect x="70" y="0" width="10" height="10" fill="rgb(138,117,70)" />
   <rect x="70" y="10" width="10" height="10" fill="rgb(100,80,30)" />
   <rect x="70" y="20" width="10" height="10" fill="rgb(93,91,43)" />
   <rect x="70" y="30" width="10" height="10" fill="rgb(137,112,58)" />
   <rect x="70" y="40" width="10" height="10" fill="rgb(182,160,110)" />
   <rect x="70" y="50" width="10" height="10" fill="rgb(173,152,105)" />
   <rect x="70" y="60" width="10" height="10" fill="rgb(194,173,126)" />
   <rect x="70" y="70" width="10" height="10" fill="rgb(142,121,76)" />
   <rect x="70" y="80" width="10" height="10" fill="rgb(0,0,0)" />
   <rect x="80" y="0" width="10" height="10" fill="rgb(0,0,0)" />
   <rect x="80" y="10" width="10" height="10" fill="rgb(0,0,0)" />
   <rect x="80" y="20" width="10" height="10" fill="rgb(0,0,0)" />
   <rect x="80" y="30" width="10" height="10" fill="rgb(0,0,0)" />
   <rect x="80" y="40" width="10" height="10" fill="rgb(0,0,0)" />
   <rect x="80" y="50" width="10" height="10" fill="rgb(0,0,0)" />
   <rect x="80" y="60" width="10" height="10" fill="rgb(0,0,0)" />
   <rect x="80" y="70" width="10" height="10" fill="rgb(0,0,0)" />
   <rect x="80" y="80" width="10" height="10" fill="rgb(0,0,0)" />
</svg>