<svg xmlns="http://www.w3.org/2000/svg" style="filter:blur(100px);-webkit-filter:blur(100px)" viewBox="0 0 80 80">
   <rect x="0" y="0" width="10" height="10" fill="rgb(57,31,32)" />
   <rect x="0" y="10" width="10" height="10" fill="rgb(84,37,43)" />
   <rect x="0" y="20" width="10" height="10" fill="rgb(115,91,91)" />
   <rect x="0" y="30" width="10" height="10" fill="rgb(100,72,69)" />
   <rect x="0" y="40" width="10" height="10" fill="rgb(179,158,163)" />
   <rect x="0" y="50" width="10" height="10" fill="rgb(117,105,109)" />
   <rect x="0" y="60" width="10" height="10" fill="rgb(125,99,100)" />
   <rect x="0" y="70" width="10" height="10" fill="rgb(81,57,57)" />
   <rect x="0" y="80" width="10" height="10" fill="rgb(0,0,0)" />
   <rect x="10" y="0" width="10" height="10" fill="rgb(56,27,29)" />
   <rect x="10" y="10" width="10" height="10" fill="rgb(48,17,15)" />
   <rect x="10" y="20" width="10" height="10" fill="rgb(89,47,35)" />
   <rect x="10" y="30" width="10" height="10" fill="rgb(60,31,33)" />
   <rect x="10" y="40" width="10" height="10" fill="rgb(183,162,169)" />
   <rect x="10" y="50" width="10" height="10" fill="rgb(94,51,42)" />
   <rect x="10" y="60" width="10" height="10" fill="rgb(59,28,25)" />
   <rect x="10" y="70" width="10" height="10" fill="rgb(144,66,66)" />
   <rect x="10" y="80" width="10" height="10" fill="rgb(0,0,0)" />
   <rect x="20" y="0" width="10" height="10" fill="rgb(160,139,138)" />
   <rect x="20" y="10" width="10" height="10" fill="rgb(166,133,118)" />
   <rect x="20" y="20" width="10" height="10" fill="rgb(212,178,168)" />
   <rect x="20" y="30" width="10" height="10" fill="rgb(134,98,82)" />
   <rect x="20" y="40" width="10" height="10" fill="rgb(186,164,166)" />
   <rect x="20" y="50" width="10" height="10" fill="rgb(84,44,36)" />
   <rect x="20" y="60" width="10" height="10" fill="rgb(89,46,37)" />
   <rect x="20" y="70" width="10" height="10" fill="rgb(50,18,21)" />
   <rect x="20" y="80" width="10" height="10" fill="rgb(0,0,0)" />
   <rect x="30" y="0" width="10" height="10" fill="rgb(53,29,29)" />
   <rect x="30" y="10" width="10" height="10" fill="rgb(148,52,54)" />
   <rect x="30" y="20" width="10" height="10" fill="rgb(195,171,171)" />
   <rect x="30" y="30" width="10" height="10" fill="rgb(89,60,56)" />
   <rect x="30" y="40" width="10" height="10" fill="rgb(187,162,165)" />
   <rect x="30" y="50" width="10" height="10" fill="rgb(170,149,154)" />
   <rect x="30" y="60" width="10" height="10" fill="rgb(133,107,108)" />
   <rect x="30" y="70" width="10" height="10" fill="rgb(182,70,69)" />
   <rect x="30" y="80" width="10" height="10" fill="rgb(0,0,0)" />
   <rect x="40" y="0" width="10" height="10" fill="rgb(62,52,53)" />
   <rect x="40" y="10" width="10" height="10" fill="rgb(50,44,44)" />
   <rect x="40" y="20" width="10" height="10" fill="rgb(67,61,61)" />
   <rect x="40" y="30" width="10" height="10" fill="rgb(44,30,30)" />
   <rect x="40" y="40" width="10" height="10" fill="rgb(43,17,16)" />
   <rect x="40" y="50" width="10" height="10" fill="rgb(43,17,16)" />
   <rect x="40" y="60" width="10" height="10" fill="rgb(43,17,16)" />
   <rect x="40" y="70" width="10" height="10" fill="rgb(179,71,71)" />
   <rect x="40" y="80" width="10" height="10" fill="rgb(0,0,0)" />
   <rect x="50" y="0" width="10" height="10" fill="rgb(37,25,27)" />
   <rect x="50" y="10" width="10" height="10" fill="rgb(62,53,54)" />
   <rect x="50" y="20" width="10" height="10" fill="rgb(92,66,67)" />
   <rect x="50" y="30" width="10" height="10" fill="rgb(45,21,21)" />
   <rect x="50" y="40" width="10" height="10" fill="rgb(43,17,16)" />
   <rect x="50" y="50" width="10" height="10" fill="rgb(43,17,16)" />
   <rect x="50" y="60" width="10" height="10" fill="rgb(43,17,16)" />
   <rect x="50" y="70" width="10" height="10" fill="rgb(43,17,16)" />
   <rect x="50" y="80" width="10" height="10" fill="rgb(0,0,0)" />
   <rect x="60" y="0" width="10" height="10" fill="rgb(66,56,57)" />
   <rect x="60" y="10" width="10" height="10" fill="rgb(46,20,19)" />
   <rect x="60" y="20" width="10" height="10" fill="rgb(92,68,68)" />
   <rect x="60" y="30" width="10" height="10" fill="rgb(62,42,53)" />
   <rect x="60" y="40" width="10" height="10" fill="rgb(43,17,16)" />
   <rect x="60" y="50" width="10" height="10" fill="rgb(43,17,16)" />
   <rect x="60" y="60" width="10" height="10" fill="rgb(43,17,16)" />
   <rect x="60" y="70" width="10" height="10" fill="rgb(43,17,16)" />
   <rect x="60" y="80" width="10" height="10" fill="rgb(0,0,0)" />
   <rect x="70" y="0" width="10" height="10" fill="rgb(64,60,61)" />
   <rect x="70" y="10" width="10" height="10" fill="rgb(159,74,79)" />
   <rect x="70" y="20" width="10" height="10" fill="rgb(66,57,58)" />
   <rect x="70" y="30" width="10" height="10" fill="rgb(41,22,24)" />
   <rect x="70" y="40" width="10" height="10" fill="rgb(43,17,16)" />
   <rect x="70" y="50" width="10" height="10" fill="rgb(43,17,16)" />
   <rect x="70" y="60" width="10" height="10" fill="rgb(43,17,16)" />
   <rect x="70" y="70" width="10" height="10" fill="rgb(43,17,16)" />
   <rect x="70" y="80" width="10" height="10" fill="rgb(0,0,0)" />
   <rect x="80" y="0" width="10" height="10" fill="rgb(0,0,0)" />
   <rect x="80" y="10" width="10" height="10" fill="rgb(0,0,0)" />
   <rect x="80" y="20" width="10" height="10" fill="rgb(0,0,0)" />
   <rect x="80" y="30" width="10" height="10" fill="rgb(0,0,0)" />
   <rect x="80" y="40" width="10" height="10" fill="rgb(0,0,0)" />
   <rect x="80" y="50" width="10" height="10" fill="rgb(0,0,0)" />
   <rect x="80" y="60" width="10" height="10" fill="rgb(0,0,0)" />
   <rect x="80" y="70" width="10" height="10" fill="rgb(0,0,0)" />
   <rect x="80" y="80" width="10" height="10" fill="rgb(0,0,0)" />
</svg>