<svg xmlns="http://www.w3.org/2000/svg" style="filter:blur(100px);-webkit-filter:blur(100px)" viewBox="0 0 80 80">
   <rect x="0" y="0" width="10" height="10" fill="rgb(13,23,12)" />
   <rect x="0" y="10" width="10" height="10" fill="rgb(31,38,22)" />
   <rect x="0" y="20" width="10" height="10" fill="rgb(48,57,40)" />
   <rect x="0" y="30" width="10" height="10" fill="rgb(21,38,28)" />
   <rect x="0" y="40" width="10" height="10" fill="rgb(239,230,231)" />
   <rect x="0" y="50" width="10" height="10" fill="rgb(238,229,230)" />
   <rect x="0" y="60" width="10" height="10" fill="rgb(241,232,233)" />
   <rect x="0" y="70" width="10" height="10" fill="rgb(238,233,227)" />
   <rect x="0" y="80" width="10" height="10" fill="rgb(0,0,0)" />
   <rect x="10" y="0" width="10" height="10" fill="rgb(16,26,15)" />
   <rect x="10" y="10" width="10" height="10" fill="rgb(39,43,26)" />
   <rect x="10" y="20" width="10" height="10" fill="rgb(52,59,43)" />
   <rect x="10" y="30" width="10" height="10" fill="rgb(45,62,52)" />
   <rect x="10" y="40" width="10" height="10" fill="rgb(241,232,233)" />
   <rect x="10" y="50" width="10" height="10" fill="rgb(241,232,233)" />
   <rect x="10" y="60" width="10" height="10" fill="rgb(239,231,229)" />
   <rect x="10" y="70" width="10" height="10" fill="rgb(170,177,169)" />
   <rect x="10" y="80" width="10" height="10" fill="rgb(0,0,0)" />
   <rect x="20" y="0" width="10" height="10" fill="rgb(15,25,14)" />
   <rect x="20" y="10" width="10" height="10" fill="rgb(27,33,19)" />
   <rect x="20" y="20" width="10" height="10" fill="rgb(55,62,44)" />
   <rect x="20" y="30" width="10" height="10" fill="rgb(42,59,49)" />
   <rect x="20" y="40" width="10" height="10" fill="rgb(242,235,229)" />
   <rect x="20" y="50" width="10" height="10" fill="rgb(39,64,61)" />
   <rect x="20" y="60" width="10" height="10" fill="rgb(50,78,79)" />
   <rect x="20" y="70" width="10" height="10" fill="rgb(1,13,11)" />
   <rect x="20" y="80" width="10" height="10" fill="rgb(0,0,0)" />
   <rect x="30" y="0" width="10" height="10" fill="rgb(20,31,17)" />
   <rect x="30" y="10" width="10" height="10" fill="rgb(0,9,8)" />
   <rect x="30" y="20" width="10" height="10" fill="rgb(0,9,8)" />
   <rect x="30" y="30" width="10" height="10" fill="rgb(0,9,8)" />
   <rect x="30" y="40" width="10" height="10" fill="rgb(98,94,67)" />
   <rect x="30" y="50" width="10" height="10" fill="rgb(0,10,4)" />
   <rect x="30" y="60" width="10" height="10" fill="rgb(3,20,27)" />
   <rect x="30" y="70" width="10" height="10" fill="rgb(0,11,4)" />
   <rect x="30" y="80" width="10" height="10" fill="rgb(0,0,0)" />
   <rect x="40" y="0" width="10" height="10" fill="rgb(22,33,17)" />
   <rect x="40" y="10" width="10" height="10" fill="rgb(0,9,8)" />
   <rect x="40" y="20" width="10" height="10" fill="rgb(0,9,8)" />
   <rect x="40" y="30" width="10" height="10" fill="rgb(78,73,44)" />
   <rect x="40" y="40" width="10" height="10" fill="rgb(5,14,13)" />
   <rect x="40" y="50" width="10" height="10" fill="rgb(14,26,24)" />
   <rect x="40" y="60" width="10" height="10" fill="rgb(7,7,9)" />
   <rect x="40" y="70" width="10" height="10" fill="rgb(135,167,81)" />
   <rect x="40" y="80" width="10" height="10" fill="rgb(0,0,0)" />
   <rect x="50" y="0" width="10" height="10" fill="rgb(25,33,18)" />
   <rect x="50" y="10" width="10" height="10" fill="rgb(0,9,8)" />
   <rect x="50" y="20" width="10" height="10" fill="rgb(0,8,7)" />
   <rect x="50" y="30" width="10" height="10" fill="rgb(63,61,36)" />
   <rect x="50" y="40" width="10" height="10" fill="rgb(71,74,53)" />
   <rect x="50" y="50" width="10" height="10" fill="rgb(0,9,8)" />
   <rect x="50" y="60" width="10" height="10" fill="rgb(0,9,8)" />
   <rect x="50" y="70" width="10" height="10" fill="rgb(0,24,35)" />
   <rect x="50" y="80" width="10" height="10" fill="rgb(0,0,0)" />
   <rect x="60" y="0" width="10" height="10" fill="rgb(25,33,20)" />
   <rect x="60" y="10" width="10" height="10" fill="rgb(0,9,8)" />
   <rect x="60" y="20" width="10" height="10" fill="rgb(0,9,8)" />
   <rect x="60" y="30" width="10" height="10" fill="rgb(1,13,9)" />
   <rect x="60" y="40" width="10" height="10" fill="rgb(46,48,27)" />
   <rect x="60" y="50" width="10" height="10" fill="rgb(68,67,47)" />
   <rect x="60" y="60" width="10" height="10" fill="rgb(1,11,10)" />
   <rect x="60" y="70" width="10" height="10" fill="rgb(0,9,8)" />
   <rect x="60" y="80" width="10" height="10" fill="rgb(0,0,0)" />
   <rect x="70" y="0" width="10" height="10" fill="rgb(26,35,18)" />
   <rect x="70" y="10" width="10" height="10" fill="rgb(0,9,8)" />
   <rect x="70" y="20" width="10" height="10" fill="rgb(0,9,8)" />
   <rect x="70" y="30" width="10" height="10" fill="rgb(58,64,50)" />
   <rect x="70" y="40" width="10" height="10" fill="rgb(60,62,41)" />
   <rect x="70" y="50" width="10" height="10" fill="rgb(67,68,50)" />
   <rect x="70" y="60" width="10" height="10" fill="rgb(36,40,26)" />
   <rect x="70" y="70" width="10" height="10" fill="rgb(46,49,32)" />
   <rect x="70" y="80" width="10" height="10" fill="rgb(0,0,0)" />
   <rect x="80" y="0" width="10" height="10" fill="rgb(0,0,0)" />
   <rect x="80" y="10" width="10" height="10" fill="rgb(0,0,0)" />
   <rect x="80" y="20" width="10" height="10" fill="rgb(0,0,0)" />
   <rect x="80" y="30" width="10" height="10" fill="rgb(0,0,0)" />
   <rect x="80" y="40" width="10" height="10" fill="rgb(0,0,0)" />
   <rect x="80" y="50" width="10" height="10" fill="rgb(0,0,0)" />
   <rect x="80" y="60" width="10" height="10" fill="rgb(0,0,0)" />
   <rect x="80" y="70" width="10" height="10" fill="rgb(0,0,0)" />
   <rect x="80" y="80" width="10" height="10" fill="rgb(0,0,0)" />
</svg>