<svg xmlns="http://www.w3.org/2000/svg" style="filter:blur(100px);-webkit-filter:blur(100px)" viewBox="0 0 80 80">
   <rect x="0" y="0" width="10" height="10" fill="rgb(8,17,56)" />
   <rect x="0" y="10" width="10" height="10" fill="rgb(8,17,56)" />
   <rect x="0" y="20" width="10" height="10" fill="rgb(8,17,56)" />
   <rect x="0" y="30" width="10" height="10" fill="rgb(8,17,56)" />
   <rect x="0" y="40" width="10" height="10" fill="rgb(8,17,56)" />
   <rect x="0" y="50" width="10" height="10" fill="rgb(8,17,56)" />
   <rect x="0" y="60" width="10" height="10" fill="rgb(8,17,56)" />
   <rect x="0" y="70" width="10" height="10" fill="rgb(8,17,56)" />
   <rect x="0" y="80" width="10" height="10" fill="rgb(0,0,0)" />
   <rect x="10" y="0" width="10" height="10" fill="rgb(8,17,56)" />
   <rect x="10" y="10" width="10" height="10" fill="rgb(128,185,205)" />
   <rect x="10" y="20" width="10" height="10" fill="rgb(209,215,215)" />
   <rect x="10" y="30" width="10" height="10" fill="rgb(146,177,182)" />
   <rect x="10" y="40" width="10" height="10" fill="rgb(101,152,155)" />
   <rect x="10" y="50" width="10" height="10" fill="rgb(245,142,137)" />
   <rect x="10" y="60" width="10" height="10" fill="rgb(231,141,143)" />
   <rect x="10" y="70" width="10" height="10" fill="rgb(46,46,48)" />
   <rect x="10" y="80" width="10" height="10" fill="rgb(0,0,0)" />
   <rect x="20" y="0" width="10" height="10" fill="rgb(8,17,56)" />
   <rect x="20" y="10" width="10" height="10" fill="rgb(115,181,203)" />
   <rect x="20" y="20" width="10" height="10" fill="rgb(166,192,193)" />
   <rect x="20" y="30" width="10" height="10" fill="rgb(123,166,172)" />
   <rect x="20" y="40" width="10" height="10" fill="rgb(82,133,136)" />
   <rect x="20" y="50" width="10" height="10" fill="rgb(79,86,70)" />
   <rect x="20" y="60" width="10" height="10" fill="rgb(171,201,209)" />
   <rect x="20" y="70" width="10" height="10" fill="rgb(188,192,195)" />
   <rect x="20" y="80" width="10" height="10" fill="rgb(0,0,0)" />
   <rect x="30" y="0" width="10" height="10" fill="rgb(8,17,56)" />
   <rect x="30" y="10" width="10" height="10" fill="rgb(99,183,211)" />
   <rect x="30" y="20" width="10" height="10" fill="rgb(119,159,161)" />
   <rect x="30" y="30" width="10" height="10" fill="rgb(81,134,150)" />
   <rect x="30" y="40" width="10" height="10" fill="rgb(54,113,117)" />
   <rect x="30" y="50" width="10" height="10" fill="rgb(167,204,213)" />
   <rect x="30" y="60" width="10" height="10" fill="rgb(167,197,207)" />
   <rect x="30" y="70" width="10" height="10" fill="rgb(228,236,238)" />
   <rect x="30" y="80" width="10" height="10" fill="rgb(0,0,0)" />
   <rect x="40" y="0" width="10" height="10" fill="rgb(8,17,56)" />
   <rect x="40" y="10" width="10" height="10" fill="rgb(87,177,203)" />
   <rect x="40" y="20" width="10" height="10" fill="rgb(63,126,131)" />
   <rect x="40" y="30" width="10" height="10" fill="rgb(42,106,131)" />
   <rect x="40" y="40" width="10" height="10" fill="rgb(58,96,107)" />
   <rect x="40" y="50" width="10" height="10" fill="rgb(175,202,209)" />
   <rect x="40" y="60" width="10" height="10" fill="rgb(169,198,206)" />
   <rect x="40" y="70" width="10" height="10" fill="rgb(204,222,236)" />
   <rect x="40" y="80" width="10" height="10" fill="rgb(0,0,0)" />
   <rect x="50" y="0" width="10" height="10" fill="rgb(8,17,56)" />
   <rect x="50" y="10" width="10" height="10" fill="rgb(67,170,203)" />
   <rect x="50" y="20" width="10" height="10" fill="rgb(190,189,203)" />
   <rect x="50" y="30" width="10" height="10" fill="rgb(228,129,123)" />
   <rect x="50" y="40" width="10" height="10" fill="rgb(245,126,130)" />
   <rect x="50" y="50" width="10" height="10" fill="rgb(201,154,164)" />
   <rect x="50" y="60" width="10" height="10" fill="rgb(62,77,72)" />
   <rect x="50" y="70" width="10" height="10" fill="rgb(14,32,46)" />
   <rect x="50" y="80" width="10" height="10" fill="rgb(0,0,0)" />
   <rect x="60" y="0" width="10" height="10" fill="rgb(8,17,56)" />
   <rect x="60" y="10" width="10" height="10" fill="rgb(8,17,56)" />
   <rect x="60" y="20" width="10" height="10" fill="rgb(8,17,56)" />
   <rect x="60" y="30" width="10" height="10" fill="rgb(8,17,56)" />
   <rect x="60" y="40" width="10" height="10" fill="rgb(11,16,56)" />
   <rect x="60" y="50" width="10" height="10" fill="rgb(9,18,57)" />
   <rect x="60" y="60" width="10" height="10" fill="rgb(10,15,55)" />
   <rect x="60" y="70" width="10" height="10" fill="rgb(4,18,55)" />
   <rect x="60" y="80" width="10" height="10" fill="rgb(0,0,0)" />
   <rect x="70" y="0" width="10" height="10" fill="rgb(8,17,56)" />
   <rect x="70" y="10" width="10" height="10" fill="rgb(8,17,56)" />
   <rect x="70" y="20" width="10" height="10" fill="rgb(8,17,56)" />
   <rect x="70" y="30" width="10" height="10" fill="rgb(8,17,56)" />
   <rect x="70" y="40" width="10" height="10" fill="rgb(152,209,229)" />
   <rect x="70" y="50" width="10" height="10" fill="rgb(139,208,224)" />
   <rect x="70" y="60" width="10" height="10" fill="rgb(10,13,54)" />
   <rect x="70" y="70" width="10" height="10" fill="rgb(0,25,52)" />
   <rect x="70" y="80" width="10" height="10" fill="rgb(0,0,0)" />
   <rect x="80" y="0" width="10" height="10" fill="rgb(0,0,0)" />
   <rect x="80" y="10" width="10" height="10" fill="rgb(0,0,0)" />
   <rect x="80" y="20" width="10" height="10" fill="rgb(0,0,0)" />
   <rect x="80" y="30" width="10" height="10" fill="rgb(0,0,0)" />
   <rect x="80" y="40" width="10" height="10" fill="rgb(0,0,0)" />
   <rect x="80" y="50" width="10" height="10" fill="rgb(0,0,0)" />
   <rect x="80" y="60" width="10" height="10" fill="rgb(0,0,0)" />
   <rect x="80" y="70" width="10" height="10" fill="rgb(0,0,0)" />
   <rect x="80" y="80" width="10" height="10" fill="rgb(0,0,0)" />
</svg>